<mxfile host="Electron" agent="Mozilla/5.0 (Windows NT 10.0; Win64; x64) AppleWebKit/537.36 (KHTML, like Gecko) draw.io/24.7.17 Chrome/128.0.6613.36 Electron/32.0.1 Safari/537.36" version="24.7.17">
  <diagram name="Page-1" id="X6Lm1pwYcKt4tAjclzut">
    <mxGraphModel dx="1235" dy="731" grid="1" gridSize="10" guides="1" tooltips="1" connect="1" arrows="1" fold="1" page="1" pageScale="1" pageWidth="1100" pageHeight="850" background="#B3B3B3" math="0" shadow="0">
      <root>
        <mxCell id="0" />
        <mxCell id="1" parent="0" />
        <mxCell id="adCBaoDV9jtvJ8COVnm3-81" style="edgeStyle=orthogonalEdgeStyle;rounded=0;orthogonalLoop=1;jettySize=auto;html=1;exitX=0;exitY=0.25;exitDx=0;exitDy=0;entryX=0.5;entryY=0;entryDx=0;entryDy=0;" parent="1" source="adCBaoDV9jtvJ8COVnm3-73" target="adCBaoDV9jtvJ8COVnm3-49" edge="1">
          <mxGeometry relative="1" as="geometry" />
        </mxCell>
        <mxCell id="adCBaoDV9jtvJ8COVnm3-73" value="merge" style="rounded=0;whiteSpace=wrap;html=1;fontSize=14;fontStyle=1;verticalAlign=bottom;fillColor=#f5f5f5;fontColor=#333333;strokeColor=#666666;" parent="1" vertex="1">
          <mxGeometry x="513" y="260" width="60" height="50" as="geometry" />
        </mxCell>
        <mxCell id="adCBaoDV9jtvJ8COVnm3-21" style="edgeStyle=orthogonalEdgeStyle;rounded=0;orthogonalLoop=1;jettySize=auto;html=1;exitX=1;exitY=0.5;exitDx=0;exitDy=0;entryX=0;entryY=0.5;entryDx=0;entryDy=0;fillColor=#dae8fc;strokeColor=#000000;" parent="1" source="adCBaoDV9jtvJ8COVnm3-16" target="adCBaoDV9jtvJ8COVnm3-18" edge="1">
          <mxGeometry relative="1" as="geometry" />
        </mxCell>
        <mxCell id="adCBaoDV9jtvJ8COVnm3-16" value="" style="rounded=0;whiteSpace=wrap;html=1;fillColor=#dae8fc;strokeColor=#6c8ebf;" parent="1" vertex="1">
          <mxGeometry x="100" y="50" width="100" height="100" as="geometry" />
        </mxCell>
        <mxCell id="adCBaoDV9jtvJ8COVnm3-17" value="Code" style="rounded=0;whiteSpace=wrap;html=1;fontSize=14;fontStyle=1;fillColor=#dae8fc;strokeColor=#6c8ebf;" parent="1" vertex="1">
          <mxGeometry x="100" y="150" width="100" height="40" as="geometry" />
        </mxCell>
        <mxCell id="adCBaoDV9jtvJ8COVnm3-1" value="" style="shape=image;verticalLabelPosition=bottom;labelBackgroundColor=default;verticalAlign=top;aspect=fixed;imageAspect=0;image=data:image/svg+xml,PHN2ZyB4bWxucz0iaHR0cDovL3d3dy53My5vcmcvMjAwMC9zdmciIGZpbGw9ImN1cnJlbnRDb2xvciIgdmlld0JveD0iMCAwIDE2IDE2IiBoZWlnaHQ9IjE2IiB3aWR0aD0iMTYiPjxwYXRoIGQ9Ik0xMC41NyAxLjE0bDMuMjggMy4zLjE1LjM2djkuN2wtLjUuNWgtMTFsLS41LS41di0xM2wuNS0uNWg3LjcybC4zNS4xNHpNMTAgNWgzbC0zLTN2M3pNMyAydjEyaDEwVjZIOS41TDkgNS41VjJIM3ptMi4wNjIgNy41MzNsMS44MTctMS44MjhMNi4xNyA3IDQgOS4xNzl2LjcwN2wyLjE3MSAyLjE3NC43MDctLjcwNy0xLjgxNi0xLjgyek04LjggNy43MTRsLjctLjcwOSAyLjE4OSAyLjE3NXYuNzA5TDkuNSAxMi4wNjJsLS43MDUtLjcwOSAxLjgzMS0xLjgyTDguOCA3LjcxNHoiIGNsaXAtcnVsZT0iZXZlbm9kZCIgZmlsbC1ydWxlPSJldmVub2RkIi8+PC9zdmc+;imageBackground=none;fillStyle=solid;fillColor=#dae8fc;strokeColor=#6c8ebf;" parent="1" vertex="1">
          <mxGeometry x="120" y="70" width="60" height="60" as="geometry" />
        </mxCell>
        <mxCell id="adCBaoDV9jtvJ8COVnm3-25" style="edgeStyle=orthogonalEdgeStyle;rounded=0;orthogonalLoop=1;jettySize=auto;html=1;exitX=1;exitY=0.5;exitDx=0;exitDy=0;entryX=0;entryY=0.5;entryDx=0;entryDy=0;fillColor=#dae8fc;strokeColor=#000000;" parent="1" source="adCBaoDV9jtvJ8COVnm3-18" target="adCBaoDV9jtvJ8COVnm3-22" edge="1">
          <mxGeometry relative="1" as="geometry" />
        </mxCell>
        <mxCell id="adCBaoDV9jtvJ8COVnm3-18" value="" style="rounded=0;whiteSpace=wrap;html=1;fillColor=#dae8fc;strokeColor=#6c8ebf;" parent="1" vertex="1">
          <mxGeometry x="230" y="50" width="100" height="100" as="geometry" />
        </mxCell>
        <mxCell id="adCBaoDV9jtvJ8COVnm3-19" value="Commit" style="rounded=0;whiteSpace=wrap;html=1;fontSize=14;fontStyle=1;fillColor=#dae8fc;strokeColor=#6c8ebf;" parent="1" vertex="1">
          <mxGeometry x="230" y="150" width="100" height="40" as="geometry" />
        </mxCell>
        <mxCell id="adCBaoDV9jtvJ8COVnm3-2" value="" style="shape=image;verticalLabelPosition=bottom;labelBackgroundColor=default;verticalAlign=top;aspect=fixed;imageAspect=0;image=data:image/svg+xml,PHN2ZyB4bWxucz0iaHR0cDovL3d3dy53My5vcmcvMjAwMC9zdmciIGZpbGw9ImN1cnJlbnRDb2xvciIgdmlld0JveD0iMCAwIDE2IDE2IiBoZWlnaHQ9IjE2IiB3aWR0aD0iMTYiPjxwYXRoIGQ9Ik0xMC45NzkgNWEzLjQyIDMuNDIgMCAwIDAtMi0xVjBoLTF2NGEzLjUgMy41IDAgMCAwLS4xOCA2Ljg5aC4xOHY0aDF2LTRhMy4wOCAzLjA4IDAgMCAwIC44NC0uMjMgMy40MiAzLjQyIDAgMCAwIDEuNTctMS4yOSAzLjQ2IDMuNDYgMCAwIDAtLjQxLTQuMzd6bS0uNyA0LjI0YTIuNTEgMi41MSAwIDAgMS0zLjE1OS4zMSAyLjUgMi41IDAgMCAxLS45Mi0xLjEyIDIuNDkgMi40OSAwIDAgMSAxLjgyLTMuNDEgMi43MiAyLjcyIDAgMCAxIC40OSAwIDIuNSAyLjUgMCAwIDEgMi41NCAyLjUgMi41MSAyLjUxIDAgMCAxLS44IDEuNzVsLjAzLS4wM3oiLz48L3N2Zz4=;fillColor=#dae8fc;strokeColor=#6c8ebf;" parent="1" vertex="1">
          <mxGeometry x="250" y="70" width="60" height="60" as="geometry" />
        </mxCell>
        <mxCell id="adCBaoDV9jtvJ8COVnm3-29" style="edgeStyle=orthogonalEdgeStyle;rounded=0;orthogonalLoop=1;jettySize=auto;html=1;exitX=1;exitY=0.5;exitDx=0;exitDy=0;entryX=0;entryY=0.5;entryDx=0;entryDy=0;fillColor=#dae8fc;strokeColor=#000000;" parent="1" source="adCBaoDV9jtvJ8COVnm3-22" target="adCBaoDV9jtvJ8COVnm3-26" edge="1">
          <mxGeometry relative="1" as="geometry" />
        </mxCell>
        <mxCell id="adCBaoDV9jtvJ8COVnm3-22" value="" style="rounded=0;whiteSpace=wrap;html=1;fillColor=#dae8fc;strokeColor=#6c8ebf;" parent="1" vertex="1">
          <mxGeometry x="360" y="50" width="100" height="100" as="geometry" />
        </mxCell>
        <mxCell id="adCBaoDV9jtvJ8COVnm3-23" value="Pull Request" style="rounded=0;whiteSpace=wrap;html=1;fontSize=14;fontStyle=1;fillColor=#dae8fc;strokeColor=#6c8ebf;" parent="1" vertex="1">
          <mxGeometry x="360" y="150" width="100" height="40" as="geometry" />
        </mxCell>
        <mxCell id="adCBaoDV9jtvJ8COVnm3-3" value="" style="shape=image;verticalLabelPosition=bottom;labelBackgroundColor=default;verticalAlign=top;aspect=fixed;imageAspect=0;image=data:image/svg+xml,PHN2ZyB4bWxucz0iaHR0cDovL3d3dy53My5vcmcvMjAwMC9zdmciIGZpbGw9ImN1cnJlbnRDb2xvciIgdmlld0JveD0iMCAwIDE2IDE2IiBoZWlnaHQ9IjE2IiB3aWR0aD0iMTYiPjxwYXRoIGQ9Ik01LjYxNiA0LjkyOGEyLjQ4NyAyLjQ4NyAwIDAgMS0xLjExOS45MjJjLS4xNDguMDYtLjQ1OC4xMzgtLjQ1OC4xMzh2NS4wMDhhMi41MSAyLjUxIDAgMCAxIDEuNTc5IDEuMDYyYy4yNzMuNDEyLjQxOS44OTUuNDE5IDEuMzg4LjAwOC4zNDMtLjA1Ny42ODQtLjE5IDFBMi40ODUgMi40ODUgMCAwIDEgMy41IDE1Ljk4NGEyLjQ4MiAyLjQ4MiAwIDAgMS0xLjM4OC0uNDE5QTIuNDg3IDIuNDg3IDAgMCAxIDEuMDUgMTNjLjA5NS0uNDg2LjMzMS0uOTMyLjY4LTEuMjgzLjM0OS0uMzQzLjc5LS41NzkgMS4yNjktLjY4VjUuOTQ5YTIuNiAyLjYgMCAwIDEtMS4yNjktLjY4IDIuNTAzIDIuNTAzIDAgMCAxLS42OC0xLjI4MyAyLjQ4NyAyLjQ4NyAwIDAgMSAxLjA2LTIuNTY1QTIuNDkgMi40OSAwIDAgMSAzLjUgMWEyLjUwNCAyLjUwNCAwIDAgMSAxLjgwNy43MjkgMi40OTMgMi40OTMgMCAwIDEgLjcyOSAxLjgxYy4wMDIuNDk0LS4xNDQuOTc4LS40MiAxLjM4OXptLS43NTYgNy44NjFhMS41IDEuNSAwIDAgMC0uNTUyLS41NzkgMS40NSAxLjQ1IDAgMCAwLS43Ny0uMjEgMS40OTUgMS40OTUgMCAwIDAtMS40NyAxLjc5IDEuNDkzIDEuNDkzIDAgMCAwIDEuMTggMS4xNzljLjI4OC4wNTguNTg2LjAzLjg2LS4wOC4yNzYtLjExNy41MTItLjMxMi42OC0uNTYuMTUtLjIyNi4yMzUtLjQ5LjI0OS0uNzZhMS41MSAxLjUxIDAgMCAwLS4xNzctLjc4ek0yLjcwOCA0Ljc0MWMuMjQ3LjE2MS41MzYuMjUuODMuMjUuMjcxIDAgLjUzOC0uMDc1Ljc3LS4yMTFhMS41MTQgMS41MTQgMCAwIDAgLjcyOS0xLjM1OSAxLjUxMyAxLjUxMyAwIDAgMC0uMjUtLjc2IDEuNTUxIDEuNTUxIDAgMCAwLS42OC0uNTYgMS40OSAxLjQ5IDAgMCAwLS44Ni0uMDggMS40OTQgMS40OTQgMCAwIDAtMS4xNzkgMS4xOGMtLjA1OC4yODgtLjAzLjU4Ni4wOC44Ni4xMTcuMjc2LjMxMi41MTIuNTYuNjh6bTEwLjMyOSA2LjI5NmMuNDguMDk3LjkyMi4zMzUgMS4yNjkuNjguNDY2LjQ3LjcyOSAxLjEwNy43MjUgMS43NjYuMDAyLjQ5My0uMTQ0Ljk3Ny0uNDIgMS4zODhhMi40OTkgMi40OTkgMCAwIDEtNC41MzItLjg5OSAyLjUgMi41IDAgMCAxIDEuMDY3LTIuNTY1Yy4yNjctLjE4My41NzEtLjMwOC44ODktLjM3VjUuNDg5YTEuNSAxLjUgMCAwIDAtMS41LTEuNDk5SDguNjg3bDEuMjY5IDEuMjctLjcxLjcwOUw3LjExNyAzLjg0di0uN2wyLjEzLTIuMTMuNzEuNzExLTEuMjY5IDEuMjdoMS44NWEyLjQ4NCAyLjQ4NCAwIDAgMSAyLjMxMiAxLjU0MWMuMTI1LjMwMi4xODkuNjI4LjE4Ny45NTd2NS41NDh6bS41NTcgMy41MDlhMS40OTMgMS40OTMgMCAwIDAgLjE5MS0xLjg5IDEuNTUyIDEuNTUyIDAgMCAwLS42OC0uNTU5IDEuNDkgMS40OSAwIDAgMC0uODYtLjA4IDEuNDkzIDEuNDkzIDAgMCAwLTEuMTc5IDEuMTggMS40OSAxLjQ5IDAgMCAwIC4wOC44NiAxLjQ5NiAxLjQ5NiAwIDAgMCAyLjQ0OC40OXoiIGNsaXAtcnVsZT0iZXZlbm9kZCIgZmlsbC1ydWxlPSJldmVub2RkIi8+PC9zdmc+;fillColor=#dae8fc;strokeColor=#6c8ebf;" parent="1" vertex="1">
          <mxGeometry x="380" y="70" width="60" height="60" as="geometry" />
        </mxCell>
        <mxCell id="adCBaoDV9jtvJ8COVnm3-36" style="edgeStyle=orthogonalEdgeStyle;rounded=0;orthogonalLoop=1;jettySize=auto;html=1;exitX=1;exitY=0.5;exitDx=0;exitDy=0;entryX=0;entryY=0.5;entryDx=0;entryDy=0;fillColor=#dae8fc;strokeColor=#000000;" parent="1" source="adCBaoDV9jtvJ8COVnm3-26" target="adCBaoDV9jtvJ8COVnm3-34" edge="1">
          <mxGeometry relative="1" as="geometry" />
        </mxCell>
        <mxCell id="adCBaoDV9jtvJ8COVnm3-26" value="" style="rounded=0;whiteSpace=wrap;html=1;fillColor=#dae8fc;strokeColor=#6c8ebf;" parent="1" vertex="1">
          <mxGeometry x="543" y="50" width="100" height="100" as="geometry" />
        </mxCell>
        <mxCell id="adCBaoDV9jtvJ8COVnm3-27" value="GitHub Actions" style="rounded=0;whiteSpace=wrap;html=1;fontSize=14;fontStyle=1;fillColor=#dae8fc;strokeColor=#6c8ebf;" parent="1" vertex="1">
          <mxGeometry x="543" y="150" width="100" height="40" as="geometry" />
        </mxCell>
        <mxCell id="adCBaoDV9jtvJ8COVnm3-13" value="" style="shape=image;verticalLabelPosition=bottom;labelBackgroundColor=default;verticalAlign=top;aspect=fixed;imageAspect=0;image=data:image/svg+xml,PHN2ZyB4bWxucz0iaHR0cDovL3d3dy53My5vcmcvMjAwMC9zdmciIHZpZXdCb3g9IjAgMCAyNCAyNCIgcm9sZT0iaW1nIj48dGl0bGU+R2l0SHViIEFjdGlvbnM8L3RpdGxlPjxwYXRoIGQ9Ik0xMC45ODQgMTMuODM2YS41LjUgMCAwIDEtLjM1My0uMTQ2bC0uNzQ1LS43NDNhLjUuNSAwIDEgMSAuNzA2LS43MDhsLjM5Mi4zOTEgMS4xODEtMS4xOGEuNS41IDAgMCAxIC43MDguNzA3bC0xLjUzNSAxLjUzM2EuNTA0LjUwNCAwIDAgMS0uMzU0LjE0NnptOS4zNTMtLjE0N2wxLjUzNC0xLjUzMmEuNS41IDAgMCAwLS43MDctLjcwN2wtMS4xODEgMS4xOC0uMzkyLS4zOTFhLjUuNSAwIDEgMC0uNzA2LjcwOGwuNzQ2Ljc0M2EuNDk3LjQ5NyAwIDAgMCAuNzA2LS4wMDF6TTQuNTI3IDcuNDUybDIuNTU3LTEuNTg1QTEgMSAwIDAgMCA3LjA5IDQuMTdMNC41MzMgMi41NkExIDEgMCAwIDAgMyAzLjQwNnYzLjE5NmExLjAwMSAxLjAwMSAwIDAgMCAxLjUyNy44NXptMi4wMy0yLjQzNkw0IDYuNjAyVjMuNDA2bDIuNTU3IDEuNjF6TTI0IDEyLjVjMCAxLjkzLTEuNTcgMy41LTMuNSAzLjVhMy41MDMgMy41MDMgMCAwIDEtMy40Ni0zaC0yLjA4YTMuNTAzIDMuNTAzIDAgMCAxLTMuNDYgMyAzLjUwMiAzLjUwMiAwIDAgMS0zLjQ2LTNoLS41NThjLS45NzIgMC0xLjg1LS4zOTktMi40ODItMS4wNDJWMTdjMCAxLjY1NCAxLjM0NiAzIDMgM2guMDRjLjI0NC0xLjY5MyAxLjctMyAzLjQ2LTMgMS45MyAwIDMuNSAxLjU3IDMuNSAzLjVTMTMuNDMgMjQgMTEuNSAyNGEzLjUwMiAzLjUwMiAwIDAgMS0zLjQ2LTNIOGMtMi4yMDYgMC00LTEuNzk0LTQtNFY5Ljg5OUE1LjAwOCA1LjAwOCAwIDAgMSAwIDVjMC0yLjc1NyAyLjI0My01IDUtNXM1IDIuMjQzIDUgNWE1LjAwNSA1LjAwNSAwIDAgMS00Ljk1MiA0Ljk5OEEyLjQ4MiAyLjQ4MiAwIDAgMCA3LjQ4MiAxMmguNTU4Yy4yNDQtMS42OTMgMS43LTMgMy40Ni0zYTMuNTAyIDMuNTAyIDAgMCAxIDMuNDYgM2gyLjA4YTMuNTAzIDMuNTAzIDAgMCAxIDMuNDYtM2MxLjkzIDAgMy41IDEuNTcgMy41IDMuNXptLTE1IDhjMCAxLjM3OCAxLjEyMiAyLjUgMi41IDIuNXMyLjUtMS4xMjIgMi41LTIuNS0xLjEyMi0yLjUtMi41LTIuNVM5IDE5LjEyMiA5IDIwLjV6TTUgOWMyLjIwNiAwIDQtMS43OTQgNC00UzcuMjA2IDEgNSAxIDEgMi43OTQgMSA1czEuNzk0IDQgNCA0em05IDMuNWMwLTEuMzc4LTEuMTIyLTIuNS0yLjUtMi41UzkgMTEuMTIyIDkgMTIuNXMxLjEyMiAyLjUgMi41IDIuNSAyLjUtMS4xMjIgMi41LTIuNXptOSAwYzAtMS4zNzgtMS4xMjItMi41LTIuNS0yLjVTMTggMTEuMTIyIDE4IDEyLjVzMS4xMjIgMi41IDIuNSAyLjUgMi41LTEuMTIyIDIuNS0yLjV6bS0xMyA4YS41LjUgMCAxIDAgMSAwIC41LjUgMCAwIDAtMSAwem0yIDBhLjUuNSAwIDEgMCAxIDAgLjUuNSAwIDAgMC0xIDB6bTEyIDBjMCAxLjkzLTEuNTcgMy41LTMuNSAzLjVhMy41MDMgMy41MDMgMCAwIDEtMy40Ni0zLjAwMmMtLjAwNy4wMDEtLjAxMy4wMDUtLjAyMS4wMDVsLS41MDYuMDE3aC0uMDE3YS41LjUgMCAwIDEtLjAxNi0uOTk5bC41MDYtLjAxN2MuMDE4LS4wMDIuMDM1LjAwNi4wNTIuMDA3QTMuNTAzIDMuNTAzIDAgMCAxIDIwLjUgMTdjMS45MyAwIDMuNSAxLjU3IDMuNSAzLjV6bS0xIDBjMC0xLjM3OC0xLjEyMi0yLjUtMi41LTIuNVMxOCAxOS4xMjIgMTggMjAuNXMxLjEyMiAyLjUgMi41IDIuNSAyLjUtMS4xMjIgMi41LTIuNXoiLz48L3N2Zz4=;fillColor=#dae8fc;strokeColor=#6c8ebf;" parent="1" vertex="1">
          <mxGeometry x="566" y="70" width="54" height="54" as="geometry" />
        </mxCell>
        <mxCell id="adCBaoDV9jtvJ8COVnm3-30" value="Lint" style="rounded=0;whiteSpace=wrap;html=1;fontSize=14;fontStyle=1;fillColor=#dae8fc;strokeColor=#6c8ebf;" parent="1" vertex="1">
          <mxGeometry x="840" y="50" width="140" height="40" as="geometry" />
        </mxCell>
        <mxCell id="adCBaoDV9jtvJ8COVnm3-31" value="Unit tests" style="rounded=0;whiteSpace=wrap;html=1;fontSize=14;fontStyle=1;fillColor=#dae8fc;strokeColor=#6c8ebf;" parent="1" vertex="1">
          <mxGeometry x="840" y="90" width="140" height="40" as="geometry" />
        </mxCell>
        <mxCell id="adCBaoDV9jtvJ8COVnm3-32" value="Integration tests" style="rounded=0;whiteSpace=wrap;html=1;fontSize=14;fontStyle=1;fillColor=#dae8fc;strokeColor=#6c8ebf;" parent="1" vertex="1">
          <mxGeometry x="840" y="130" width="140" height="40" as="geometry" />
        </mxCell>
        <mxCell id="adCBaoDV9jtvJ8COVnm3-80" style="edgeStyle=orthogonalEdgeStyle;rounded=0;orthogonalLoop=1;jettySize=auto;html=1;exitX=0.5;exitY=1;exitDx=0;exitDy=0;entryX=1;entryY=0.25;entryDx=0;entryDy=0;" parent="1" source="adCBaoDV9jtvJ8COVnm3-33" target="adCBaoDV9jtvJ8COVnm3-73" edge="1">
          <mxGeometry relative="1" as="geometry" />
        </mxCell>
        <mxCell id="adCBaoDV9jtvJ8COVnm3-33" value="Coverage report" style="rounded=0;whiteSpace=wrap;html=1;fontSize=14;fontStyle=1;fillColor=#dae8fc;strokeColor=#6c8ebf;" parent="1" vertex="1">
          <mxGeometry x="840" y="170" width="140" height="40" as="geometry" />
        </mxCell>
        <mxCell id="adCBaoDV9jtvJ8COVnm3-34" value="" style="rounded=0;whiteSpace=wrap;html=1;fillColor=#dae8fc;strokeColor=#6c8ebf;" parent="1" vertex="1">
          <mxGeometry x="740" y="50" width="100" height="160" as="geometry" />
        </mxCell>
        <mxCell id="adCBaoDV9jtvJ8COVnm3-5" value="" style="shape=image;verticalLabelPosition=bottom;labelBackgroundColor=default;verticalAlign=top;aspect=fixed;imageAspect=0;image=data:image/svg+xml,PHN2ZyB4bWxucz0iaHR0cDovL3d3dy53My5vcmcvMjAwMC9zdmciIGZpbGw9ImN1cnJlbnRDb2xvciIgdmlld0JveD0iMCAwIDE2IDE2IiBoZWlnaHQ9IjE2IiB3aWR0aD0iMTYiPjxwYXRoIGQ9Ik0zLjc1IDQuNDhoLS43MUwyIDMuNDNsLjcxLS43LjY5LjY4TDQuODEgMmwuNzEuNzEtMS43NyAxLjc3ek02Ljk5IDNoOHYxaC04VjN6bTAgM2g4djFoLThWNnptOCAzaC04djFoOFY5em0tOCAzaDh2MWgtOHYtMXpNMy4wNCA3LjQ4aC43MWwxLjc3LTEuNzctLjcxLS43TDMuNCA2LjQybC0uNjktLjY5LS43MS43MSAxLjA0IDEuMDR6bS43MSAzLjAxaC0uNzFMMiA5LjQ1bC43MS0uNzEuNjkuNjkgMS40MS0xLjQyLjcxLjcxLTEuNzcgMS43N3ptLS43MSAzLjAxaC43MWwxLjc3LTEuNzctLjcxLS43MS0xLjQxIDEuNDItLjY5LS42OS0uNzEuNyAxLjA0IDEuMDV6IiBjbGlwLXJ1bGU9ImV2ZW5vZGQiIGZpbGwtcnVsZT0iZXZlbm9kZCIvPjwvc3ZnPg==;fillColor=#dae8fc;strokeColor=#6c8ebf;" parent="1" vertex="1">
          <mxGeometry x="760" y="100" width="60" height="60" as="geometry" />
        </mxCell>
        <mxCell id="L8xQS8z93o3ELzqS3NWV-14" style="edgeStyle=orthogonalEdgeStyle;rounded=0;orthogonalLoop=1;jettySize=auto;html=1;exitX=1;exitY=0.5;exitDx=0;exitDy=0;entryX=0;entryY=0.5;entryDx=0;entryDy=0;fillColor=#fff2cc;strokeColor=#000000;" edge="1" parent="1" source="adCBaoDV9jtvJ8COVnm3-43" target="adCBaoDV9jtvJ8COVnm3-58">
          <mxGeometry relative="1" as="geometry" />
        </mxCell>
        <mxCell id="L8xQS8z93o3ELzqS3NWV-15" style="edgeStyle=orthogonalEdgeStyle;rounded=0;orthogonalLoop=1;jettySize=auto;html=1;exitX=1;exitY=0.75;exitDx=0;exitDy=0;entryX=0;entryY=0.75;entryDx=0;entryDy=0;fillColor=#fff2cc;strokeColor=#000000;" edge="1" parent="1" source="adCBaoDV9jtvJ8COVnm3-43" target="L8xQS8z93o3ELzqS3NWV-3">
          <mxGeometry relative="1" as="geometry" />
        </mxCell>
        <mxCell id="adCBaoDV9jtvJ8COVnm3-43" value="" style="rounded=0;whiteSpace=wrap;html=1;fillColor=#fff2cc;strokeColor=#d6b656;" parent="1" vertex="1">
          <mxGeometry x="100" y="520" width="100" height="100" as="geometry" />
        </mxCell>
        <mxCell id="adCBaoDV9jtvJ8COVnm3-44" value="GitHub Actions" style="rounded=0;whiteSpace=wrap;html=1;fontSize=14;fontStyle=1;fillColor=#fff2cc;strokeColor=#d6b656;" parent="1" vertex="1">
          <mxGeometry x="100" y="620" width="100" height="40" as="geometry" />
        </mxCell>
        <mxCell id="adCBaoDV9jtvJ8COVnm3-45" value="" style="shape=image;verticalLabelPosition=bottom;labelBackgroundColor=default;verticalAlign=top;aspect=fixed;imageAspect=0;image=data:image/svg+xml,PHN2ZyB4bWxucz0iaHR0cDovL3d3dy53My5vcmcvMjAwMC9zdmciIHZpZXdCb3g9IjAgMCAyNCAyNCIgcm9sZT0iaW1nIj48dGl0bGU+R2l0SHViIEFjdGlvbnM8L3RpdGxlPjxwYXRoIGQ9Ik0xMC45ODQgMTMuODM2YS41LjUgMCAwIDEtLjM1My0uMTQ2bC0uNzQ1LS43NDNhLjUuNSAwIDEgMSAuNzA2LS43MDhsLjM5Mi4zOTEgMS4xODEtMS4xOGEuNS41IDAgMCAxIC43MDguNzA3bC0xLjUzNSAxLjUzM2EuNTA0LjUwNCAwIDAgMS0uMzU0LjE0NnptOS4zNTMtLjE0N2wxLjUzNC0xLjUzMmEuNS41IDAgMCAwLS43MDctLjcwN2wtMS4xODEgMS4xOC0uMzkyLS4zOTFhLjUuNSAwIDEgMC0uNzA2LjcwOGwuNzQ2Ljc0M2EuNDk3LjQ5NyAwIDAgMCAuNzA2LS4wMDF6TTQuNTI3IDcuNDUybDIuNTU3LTEuNTg1QTEgMSAwIDAgMCA3LjA5IDQuMTdMNC41MzMgMi41NkExIDEgMCAwIDAgMyAzLjQwNnYzLjE5NmExLjAwMSAxLjAwMSAwIDAgMCAxLjUyNy44NXptMi4wMy0yLjQzNkw0IDYuNjAyVjMuNDA2bDIuNTU3IDEuNjF6TTI0IDEyLjVjMCAxLjkzLTEuNTcgMy41LTMuNSAzLjVhMy41MDMgMy41MDMgMCAwIDEtMy40Ni0zaC0yLjA4YTMuNTAzIDMuNTAzIDAgMCAxLTMuNDYgMyAzLjUwMiAzLjUwMiAwIDAgMS0zLjQ2LTNoLS41NThjLS45NzIgMC0xLjg1LS4zOTktMi40ODItMS4wNDJWMTdjMCAxLjY1NCAxLjM0NiAzIDMgM2guMDRjLjI0NC0xLjY5MyAxLjctMyAzLjQ2LTMgMS45MyAwIDMuNSAxLjU3IDMuNSAzLjVTMTMuNDMgMjQgMTEuNSAyNGEzLjUwMiAzLjUwMiAwIDAgMS0zLjQ2LTNIOGMtMi4yMDYgMC00LTEuNzk0LTQtNFY5Ljg5OUE1LjAwOCA1LjAwOCAwIDAgMSAwIDVjMC0yLjc1NyAyLjI0My01IDUtNXM1IDIuMjQzIDUgNWE1LjAwNSA1LjAwNSAwIDAgMS00Ljk1MiA0Ljk5OEEyLjQ4MiAyLjQ4MiAwIDAgMCA3LjQ4MiAxMmguNTU4Yy4yNDQtMS42OTMgMS43LTMgMy40Ni0zYTMuNTAyIDMuNTAyIDAgMCAxIDMuNDYgM2gyLjA4YTMuNTAzIDMuNTAzIDAgMCAxIDMuNDYtM2MxLjkzIDAgMy41IDEuNTcgMy41IDMuNXptLTE1IDhjMCAxLjM3OCAxLjEyMiAyLjUgMi41IDIuNXMyLjUtMS4xMjIgMi41LTIuNS0xLjEyMi0yLjUtMi41LTIuNVM5IDE5LjEyMiA5IDIwLjV6TTUgOWMyLjIwNiAwIDQtMS43OTQgNC00UzcuMjA2IDEgNSAxIDEgMi43OTQgMSA1czEuNzk0IDQgNCA0em05IDMuNWMwLTEuMzc4LTEuMTIyLTIuNS0yLjUtMi41UzkgMTEuMTIyIDkgMTIuNXMxLjEyMiAyLjUgMi41IDIuNSAyLjUtMS4xMjIgMi41LTIuNXptOSAwYzAtMS4zNzgtMS4xMjItMi41LTIuNS0yLjVTMTggMTEuMTIyIDE4IDEyLjVzMS4xMjIgMi41IDIuNSAyLjUgMi41LTEuMTIyIDIuNS0yLjV6bS0xMyA4YS41LjUgMCAxIDAgMSAwIC41LjUgMCAwIDAtMSAwem0yIDBhLjUuNSAwIDEgMCAxIDAgLjUuNSAwIDAgMC0xIDB6bTEyIDBjMCAxLjkzLTEuNTcgMy41LTMuNSAzLjVhMy41MDMgMy41MDMgMCAwIDEtMy40Ni0zLjAwMmMtLjAwNy4wMDEtLjAxMy4wMDUtLjAyMS4wMDVsLS41MDYuMDE3aC0uMDE3YS41LjUgMCAwIDEtLjAxNi0uOTk5bC41MDYtLjAxN2MuMDE4LS4wMDIuMDM1LjAwNi4wNTIuMDA3QTMuNTAzIDMuNTAzIDAgMCAxIDIwLjUgMTdjMS45MyAwIDMuNSAxLjU3IDMuNSAzLjV6bS0xIDBjMC0xLjM3OC0xLjEyMi0yLjUtMi41LTIuNVMxOCAxOS4xMjIgMTggMjAuNXMxLjEyMiAyLjUgMi41IDIuNSAyLjUtMS4xMjIgMi41LTIuNXoiLz48L3N2Zz4=;fillColor=#fff2cc;strokeColor=#d6b656;" parent="1" vertex="1">
          <mxGeometry x="123" y="540" width="54" height="54" as="geometry" />
        </mxCell>
        <mxCell id="adCBaoDV9jtvJ8COVnm3-49" value="" style="rounded=0;whiteSpace=wrap;html=1;fillColor=#fff2cc;strokeColor=#d6b656;" parent="1" vertex="1">
          <mxGeometry x="100" y="350" width="100" height="100" as="geometry" />
        </mxCell>
        <mxCell id="L8xQS8z93o3ELzqS3NWV-11" style="edgeStyle=orthogonalEdgeStyle;rounded=0;orthogonalLoop=1;jettySize=auto;html=1;exitX=0.5;exitY=1;exitDx=0;exitDy=0;entryX=0.5;entryY=0;entryDx=0;entryDy=0;fillColor=#fff2cc;strokeColor=#d6b656;" edge="1" parent="1" source="adCBaoDV9jtvJ8COVnm3-50" target="adCBaoDV9jtvJ8COVnm3-43">
          <mxGeometry relative="1" as="geometry" />
        </mxCell>
        <mxCell id="adCBaoDV9jtvJ8COVnm3-50" value="Pull Request" style="rounded=0;whiteSpace=wrap;html=1;fontSize=14;fontStyle=1;fillColor=#fff2cc;strokeColor=#d6b656;" parent="1" vertex="1">
          <mxGeometry x="100" y="450" width="100" height="40" as="geometry" />
        </mxCell>
        <mxCell id="adCBaoDV9jtvJ8COVnm3-51" value="" style="shape=image;verticalLabelPosition=bottom;labelBackgroundColor=default;verticalAlign=top;aspect=fixed;imageAspect=0;image=data:image/svg+xml,PHN2ZyB4bWxucz0iaHR0cDovL3d3dy53My5vcmcvMjAwMC9zdmciIGZpbGw9ImN1cnJlbnRDb2xvciIgdmlld0JveD0iMCAwIDE2IDE2IiBoZWlnaHQ9IjE2IiB3aWR0aD0iMTYiPjxwYXRoIGQ9Ik01LjYxNiA0LjkyOGEyLjQ4NyAyLjQ4NyAwIDAgMS0xLjExOS45MjJjLS4xNDguMDYtLjQ1OC4xMzgtLjQ1OC4xMzh2NS4wMDhhMi41MSAyLjUxIDAgMCAxIDEuNTc5IDEuMDYyYy4yNzMuNDEyLjQxOS44OTUuNDE5IDEuMzg4LjAwOC4zNDMtLjA1Ny42ODQtLjE5IDFBMi40ODUgMi40ODUgMCAwIDEgMy41IDE1Ljk4NGEyLjQ4MiAyLjQ4MiAwIDAgMS0xLjM4OC0uNDE5QTIuNDg3IDIuNDg3IDAgMCAxIDEuMDUgMTNjLjA5NS0uNDg2LjMzMS0uOTMyLjY4LTEuMjgzLjM0OS0uMzQzLjc5LS41NzkgMS4yNjktLjY4VjUuOTQ5YTIuNiAyLjYgMCAwIDEtMS4yNjktLjY4IDIuNTAzIDIuNTAzIDAgMCAxLS42OC0xLjI4MyAyLjQ4NyAyLjQ4NyAwIDAgMSAxLjA2LTIuNTY1QTIuNDkgMi40OSAwIDAgMSAzLjUgMWEyLjUwNCAyLjUwNCAwIDAgMSAxLjgwNy43MjkgMi40OTMgMi40OTMgMCAwIDEgLjcyOSAxLjgxYy4wMDIuNDk0LS4xNDQuOTc4LS40MiAxLjM4OXptLS43NTYgNy44NjFhMS41IDEuNSAwIDAgMC0uNTUyLS41NzkgMS40NSAxLjQ1IDAgMCAwLS43Ny0uMjEgMS40OTUgMS40OTUgMCAwIDAtMS40NyAxLjc5IDEuNDkzIDEuNDkzIDAgMCAwIDEuMTggMS4xNzljLjI4OC4wNTguNTg2LjAzLjg2LS4wOC4yNzYtLjExNy41MTItLjMxMi42OC0uNTYuMTUtLjIyNi4yMzUtLjQ5LjI0OS0uNzZhMS41MSAxLjUxIDAgMCAwLS4xNzctLjc4ek0yLjcwOCA0Ljc0MWMuMjQ3LjE2MS41MzYuMjUuODMuMjUuMjcxIDAgLjUzOC0uMDc1Ljc3LS4yMTFhMS41MTQgMS41MTQgMCAwIDAgLjcyOS0xLjM1OSAxLjUxMyAxLjUxMyAwIDAgMC0uMjUtLjc2IDEuNTUxIDEuNTUxIDAgMCAwLS42OC0uNTYgMS40OSAxLjQ5IDAgMCAwLS44Ni0uMDggMS40OTQgMS40OTQgMCAwIDAtMS4xNzkgMS4xOGMtLjA1OC4yODgtLjAzLjU4Ni4wOC44Ni4xMTcuMjc2LjMxMi41MTIuNTYuNjh6bTEwLjMyOSA2LjI5NmMuNDguMDk3LjkyMi4zMzUgMS4yNjkuNjguNDY2LjQ3LjcyOSAxLjEwNy43MjUgMS43NjYuMDAyLjQ5My0uMTQ0Ljk3Ny0uNDIgMS4zODhhMi40OTkgMi40OTkgMCAwIDEtNC41MzItLjg5OSAyLjUgMi41IDAgMCAxIDEuMDY3LTIuNTY1Yy4yNjctLjE4My41NzEtLjMwOC44ODktLjM3VjUuNDg5YTEuNSAxLjUgMCAwIDAtMS41LTEuNDk5SDguNjg3bDEuMjY5IDEuMjctLjcxLjcwOUw3LjExNyAzLjg0di0uN2wyLjEzLTIuMTMuNzEuNzExLTEuMjY5IDEuMjdoMS44NWEyLjQ4NCAyLjQ4NCAwIDAgMSAyLjMxMiAxLjU0MWMuMTI1LjMwMi4xODkuNjI4LjE4Ny45NTd2NS41NDh6bS41NTcgMy41MDlhMS40OTMgMS40OTMgMCAwIDAgLjE5MS0xLjg5IDEuNTUyIDEuNTUyIDAgMCAwLS42OC0uNTU5IDEuNDkgMS40OSAwIDAgMC0uODYtLjA4IDEuNDkzIDEuNDkzIDAgMCAwLTEuMTc5IDEuMTggMS40OSAxLjQ5IDAgMCAwIC4wOC44NiAxLjQ5NiAxLjQ5NiAwIDAgMCAyLjQ0OC40OXoiIGNsaXAtcnVsZT0iZXZlbm9kZCIgZmlsbC1ydWxlPSJldmVub2RkIi8+PC9zdmc+;fillColor=#fff2cc;strokeColor=#d6b656;" parent="1" vertex="1">
          <mxGeometry x="120" y="370" width="60" height="60" as="geometry" />
        </mxCell>
        <mxCell id="adCBaoDV9jtvJ8COVnm3-84" style="edgeStyle=orthogonalEdgeStyle;rounded=0;orthogonalLoop=1;jettySize=auto;html=1;exitX=1;exitY=0.5;exitDx=0;exitDy=0;entryX=0;entryY=0.25;entryDx=0;entryDy=0;" parent="1" source="adCBaoDV9jtvJ8COVnm3-58" target="adCBaoDV9jtvJ8COVnm3-77" edge="1">
          <mxGeometry relative="1" as="geometry" />
        </mxCell>
        <mxCell id="adCBaoDV9jtvJ8COVnm3-58" value="" style="rounded=0;whiteSpace=wrap;html=1;fillColor=#fff2cc;strokeColor=#d6b656;" parent="1" vertex="1">
          <mxGeometry x="360" y="350" width="100" height="100" as="geometry" />
        </mxCell>
        <mxCell id="adCBaoDV9jtvJ8COVnm3-59" value="e2e tests" style="rounded=0;whiteSpace=wrap;html=1;fontSize=14;fontStyle=1;fillColor=#fff2cc;strokeColor=#d6b656;" parent="1" vertex="1">
          <mxGeometry x="360" y="450" width="100" height="40" as="geometry" />
        </mxCell>
        <mxCell id="adCBaoDV9jtvJ8COVnm3-61" value="" style="shape=image;verticalLabelPosition=bottom;labelBackgroundColor=default;verticalAlign=top;aspect=fixed;imageAspect=0;image=data:image/svg+xml,PHN2ZyB4bWxucz0iaHR0cDovL3d3dy53My5vcmcvMjAwMC9zdmciIGZpbGw9ImN1cnJlbnRDb2xvciIgdmlld0JveD0iMCAwIDE2IDE2IiBoZWlnaHQ9IjE2IiB3aWR0aD0iMTYiPjxwYXRoIGQ9Ik0zLjc1IDQuNDhoLS43MUwyIDMuNDNsLjcxLS43LjY5LjY4TDQuODEgMmwuNzEuNzEtMS43NyAxLjc3ek02Ljk5IDNoOHYxaC04VjN6bTAgM2g4djFoLThWNnptOCAzaC04djFoOFY5em0tOCAzaDh2MWgtOHYtMXpNMy4wNCA3LjQ4aC43MWwxLjc3LTEuNzctLjcxLS43TDMuNCA2LjQybC0uNjktLjY5LS43MS43MSAxLjA0IDEuMDR6bS43MSAzLjAxaC0uNzFMMiA5LjQ1bC43MS0uNzEuNjkuNjkgMS40MS0xLjQyLjcxLjcxLTEuNzcgMS43N3ptLS43MSAzLjAxaC43MWwxLjc3LTEuNzctLjcxLS43MS0xLjQxIDEuNDItLjY5LS42OS0uNzEuNyAxLjA0IDEuMDV6IiBjbGlwLXJ1bGU9ImV2ZW5vZGQiIGZpbGwtcnVsZT0iZXZlbm9kZCIvPjwvc3ZnPg==;fillColor=#fff2cc;strokeColor=#d6b656;" parent="1" vertex="1">
          <mxGeometry x="380" y="370" width="60" height="60" as="geometry" />
        </mxCell>
        <mxCell id="adCBaoDV9jtvJ8COVnm3-86" style="edgeStyle=orthogonalEdgeStyle;rounded=0;orthogonalLoop=1;jettySize=auto;html=1;exitX=1;exitY=0.5;exitDx=0;exitDy=0;entryX=0;entryY=0.5;entryDx=0;entryDy=0;fillColor=#d5e8d4;strokeColor=#000000;" parent="1" source="adCBaoDV9jtvJ8COVnm3-63" target="adCBaoDV9jtvJ8COVnm3-66" edge="1">
          <mxGeometry relative="1" as="geometry" />
        </mxCell>
        <mxCell id="adCBaoDV9jtvJ8COVnm3-63" value="" style="rounded=0;whiteSpace=wrap;html=1;fillColor=#d5e8d4;strokeColor=#82b366;" parent="1" vertex="1">
          <mxGeometry x="620" y="350" width="100" height="100" as="geometry" />
        </mxCell>
        <mxCell id="adCBaoDV9jtvJ8COVnm3-64" value="GitHub Actions" style="rounded=0;whiteSpace=wrap;html=1;fontSize=14;fontStyle=1;fillColor=#d5e8d4;strokeColor=#82b366;" parent="1" vertex="1">
          <mxGeometry x="620" y="450" width="100" height="40" as="geometry" />
        </mxCell>
        <mxCell id="adCBaoDV9jtvJ8COVnm3-65" value="" style="shape=image;verticalLabelPosition=bottom;labelBackgroundColor=default;verticalAlign=top;aspect=fixed;imageAspect=0;image=data:image/svg+xml,PHN2ZyB4bWxucz0iaHR0cDovL3d3dy53My5vcmcvMjAwMC9zdmciIHZpZXdCb3g9IjAgMCAyNCAyNCIgcm9sZT0iaW1nIj48dGl0bGU+R2l0SHViIEFjdGlvbnM8L3RpdGxlPjxwYXRoIGQ9Ik0xMC45ODQgMTMuODM2YS41LjUgMCAwIDEtLjM1My0uMTQ2bC0uNzQ1LS43NDNhLjUuNSAwIDEgMSAuNzA2LS43MDhsLjM5Mi4zOTEgMS4xODEtMS4xOGEuNS41IDAgMCAxIC43MDguNzA3bC0xLjUzNSAxLjUzM2EuNTA0LjUwNCAwIDAgMS0uMzU0LjE0NnptOS4zNTMtLjE0N2wxLjUzNC0xLjUzMmEuNS41IDAgMCAwLS43MDctLjcwN2wtMS4xODEgMS4xOC0uMzkyLS4zOTFhLjUuNSAwIDEgMC0uNzA2LjcwOGwuNzQ2Ljc0M2EuNDk3LjQ5NyAwIDAgMCAuNzA2LS4wMDF6TTQuNTI3IDcuNDUybDIuNTU3LTEuNTg1QTEgMSAwIDAgMCA3LjA5IDQuMTdMNC41MzMgMi41NkExIDEgMCAwIDAgMyAzLjQwNnYzLjE5NmExLjAwMSAxLjAwMSAwIDAgMCAxLjUyNy44NXptMi4wMy0yLjQzNkw0IDYuNjAyVjMuNDA2bDIuNTU3IDEuNjF6TTI0IDEyLjVjMCAxLjkzLTEuNTcgMy41LTMuNSAzLjVhMy41MDMgMy41MDMgMCAwIDEtMy40Ni0zaC0yLjA4YTMuNTAzIDMuNTAzIDAgMCAxLTMuNDYgMyAzLjUwMiAzLjUwMiAwIDAgMS0zLjQ2LTNoLS41NThjLS45NzIgMC0xLjg1LS4zOTktMi40ODItMS4wNDJWMTdjMCAxLjY1NCAxLjM0NiAzIDMgM2guMDRjLjI0NC0xLjY5MyAxLjctMyAzLjQ2LTMgMS45MyAwIDMuNSAxLjU3IDMuNSAzLjVTMTMuNDMgMjQgMTEuNSAyNGEzLjUwMiAzLjUwMiAwIDAgMS0zLjQ2LTNIOGMtMi4yMDYgMC00LTEuNzk0LTQtNFY5Ljg5OUE1LjAwOCA1LjAwOCAwIDAgMSAwIDVjMC0yLjc1NyAyLjI0My01IDUtNXM1IDIuMjQzIDUgNWE1LjAwNSA1LjAwNSAwIDAgMS00Ljk1MiA0Ljk5OEEyLjQ4MiAyLjQ4MiAwIDAgMCA3LjQ4MiAxMmguNTU4Yy4yNDQtMS42OTMgMS43LTMgMy40Ni0zYTMuNTAyIDMuNTAyIDAgMCAxIDMuNDYgM2gyLjA4YTMuNTAzIDMuNTAzIDAgMCAxIDMuNDYtM2MxLjkzIDAgMy41IDEuNTcgMy41IDMuNXptLTE1IDhjMCAxLjM3OCAxLjEyMiAyLjUgMi41IDIuNXMyLjUtMS4xMjIgMi41LTIuNS0xLjEyMi0yLjUtMi41LTIuNVM5IDE5LjEyMiA5IDIwLjV6TTUgOWMyLjIwNiAwIDQtMS43OTQgNC00UzcuMjA2IDEgNSAxIDEgMi43OTQgMSA1czEuNzk0IDQgNCA0em05IDMuNWMwLTEuMzc4LTEuMTIyLTIuNS0yLjUtMi41UzkgMTEuMTIyIDkgMTIuNXMxLjEyMiAyLjUgMi41IDIuNSAyLjUtMS4xMjIgMi41LTIuNXptOSAwYzAtMS4zNzgtMS4xMjItMi41LTIuNS0yLjVTMTggMTEuMTIyIDE4IDEyLjVzMS4xMjIgMi41IDIuNSAyLjUgMi41LTEuMTIyIDIuNS0yLjV6bS0xMyA4YS41LjUgMCAxIDAgMSAwIC41LjUgMCAwIDAtMSAwem0yIDBhLjUuNSAwIDEgMCAxIDAgLjUuNSAwIDAgMC0xIDB6bTEyIDBjMCAxLjkzLTEuNTcgMy41LTMuNSAzLjVhMy41MDMgMy41MDMgMCAwIDEtMy40Ni0zLjAwMmMtLjAwNy4wMDEtLjAxMy4wMDUtLjAyMS4wMDVsLS41MDYuMDE3aC0uMDE3YS41LjUgMCAwIDEtLjAxNi0uOTk5bC41MDYtLjAxN2MuMDE4LS4wMDIuMDM1LjAwNi4wNTIuMDA3QTMuNTAzIDMuNTAzIDAgMCAxIDIwLjUgMTdjMS45MyAwIDMuNSAxLjU3IDMuNSAzLjV6bS0xIDBjMC0xLjM3OC0xLjEyMi0yLjUtMi41LTIuNVMxOCAxOS4xMjIgMTggMjAuNXMxLjEyMiAyLjUgMi41IDIuNSAyLjUtMS4xMjIgMi41LTIuNXoiLz48L3N2Zz4=;fillColor=#d5e8d4;strokeColor=#82b366;" parent="1" vertex="1">
          <mxGeometry x="643" y="370" width="54" height="54" as="geometry" />
        </mxCell>
        <mxCell id="adCBaoDV9jtvJ8COVnm3-87" style="edgeStyle=orthogonalEdgeStyle;rounded=0;orthogonalLoop=1;jettySize=auto;html=1;exitX=1;exitY=0.5;exitDx=0;exitDy=0;entryX=0;entryY=0.5;entryDx=0;entryDy=0;fillColor=#d5e8d4;strokeColor=#000000;" parent="1" source="adCBaoDV9jtvJ8COVnm3-66" target="adCBaoDV9jtvJ8COVnm3-69" edge="1">
          <mxGeometry relative="1" as="geometry" />
        </mxCell>
        <mxCell id="adCBaoDV9jtvJ8COVnm3-66" value="" style="rounded=0;whiteSpace=wrap;html=1;fillColor=#d5e8d4;strokeColor=#82b366;" parent="1" vertex="1">
          <mxGeometry x="750" y="350" width="100" height="100" as="geometry" />
        </mxCell>
        <mxCell id="adCBaoDV9jtvJ8COVnm3-67" value="Build" style="rounded=0;whiteSpace=wrap;html=1;fontSize=14;fontStyle=1;fillColor=#d5e8d4;strokeColor=#82b366;" parent="1" vertex="1">
          <mxGeometry x="750" y="450" width="100" height="40" as="geometry" />
        </mxCell>
        <mxCell id="adCBaoDV9jtvJ8COVnm3-8" value="" style="shape=image;verticalLabelPosition=bottom;labelBackgroundColor=default;verticalAlign=top;aspect=fixed;imageAspect=0;image=data:image/svg+xml,PHN2ZyB4bWxucz0iaHR0cDovL3d3dy53My5vcmcvMjAwMC9zdmciIGZpbGw9ImN1cnJlbnRDb2xvciIgdmlld0JveD0iMCAwIDE2IDE2IiBoZWlnaHQ9IjE2IiB3aWR0aD0iMTYiPjxwYXRoIGQ9Ik0xMy41MSA0bC01LTNoLTFsLTUgMy0uNDkuODZ2NmwuNDkuODUgNSAzaDFsNS0zIC40OS0uODV2LTZMMTMuNTEgNHptLTYgOS41NmwtNC41LTIuN1Y1LjdsNC41IDIuNDV2NS40MXpNMy4yNyA0LjdsNC43NC0yLjg0IDQuNzQgMi44NC00Ljc0IDIuNTlMMy4yNyA0Ljd6bTkuNzQgNi4xNmwtNC41IDIuN1Y4LjE1bDQuNS0yLjQ1djUuMTZ6Ii8+PC9zdmc+;fillColor=#d5e8d4;strokeColor=#82b366;" parent="1" vertex="1">
          <mxGeometry x="770" y="370" width="60" height="60" as="geometry" />
        </mxCell>
        <mxCell id="adCBaoDV9jtvJ8COVnm3-69" value="" style="rounded=0;whiteSpace=wrap;html=1;fillColor=#d5e8d4;strokeColor=#82b366;" parent="1" vertex="1">
          <mxGeometry x="880" y="350" width="100" height="100" as="geometry" />
        </mxCell>
        <mxCell id="adCBaoDV9jtvJ8COVnm3-70" value="Deploy&lt;div&gt;Docker Hub&lt;/div&gt;" style="rounded=0;whiteSpace=wrap;html=1;fontSize=14;fontStyle=1;fillColor=#d5e8d4;strokeColor=#82b366;" parent="1" vertex="1">
          <mxGeometry x="880" y="450" width="100" height="40" as="geometry" />
        </mxCell>
        <mxCell id="adCBaoDV9jtvJ8COVnm3-11" value="" style="shape=image;verticalLabelPosition=bottom;labelBackgroundColor=default;verticalAlign=top;aspect=fixed;imageAspect=0;image=data:image/svg+xml,PHN2ZyB4bWxucz0iaHR0cDovL3d3dy53My5vcmcvMjAwMC9zdmciIHZpZXdCb3g9IjAgMCAyNCAyNCIgcm9sZT0iaW1nIj48dGl0bGU+RG9ja2VyPC90aXRsZT48cGF0aCBkPSJNMTMuOTgzIDExLjA3OGgyLjExOWEuMTg2LjE4NiAwIDAwLjE4Ni0uMTg1VjkuMDA2YS4xODYuMTg2IDAgMDAtLjE4Ni0uMTg2aC0yLjExOWEuMTg1LjE4NSAwIDAwLS4xODUuMTg1djEuODg4YzAgLjEwMi4wODMuMTg1LjE4NS4xODVtLTIuOTU0LTUuNDNoMi4xMThhLjE4Ni4xODYgMCAwMC4xODYtLjE4NlYzLjU3NGEuMTg2LjE4NiAwIDAwLS4xODYtLjE4NWgtMi4xMThhLjE4NS4xODUgMCAwMC0uMTg1LjE4NXYxLjg4OGMwIC4xMDIuMDgyLjE4NS4xODUuMTg1bTAgMi43MTZoMi4xMThhLjE4Ny4xODcgMCAwMC4xODYtLjE4NlY2LjI5YS4xODYuMTg2IDAgMDAtLjE4Ni0uMTg1aC0yLjExOGEuMTg1LjE4NSAwIDAwLS4xODUuMTg1djEuODg3YzAgLjEwMi4wODIuMTg1LjE4NS4xODZtLTIuOTMgMGgyLjEyYS4xODYuMTg2IDAgMDAuMTg0LS4xODZWNi4yOWEuMTg1LjE4NSAwIDAwLS4xODUtLjE4NUg4LjFhLjE4NS4xODUgMCAwMC0uMTg1LjE4NXYxLjg4N2MwIC4xMDIuMDgzLjE4NS4xODUuMTg2bS0yLjk2NCAwaDIuMTE5YS4xODYuMTg2IDAgMDAuMTg1LS4xODZWNi4yOWEuMTg1LjE4NSAwIDAwLS4xODUtLjE4NUg1LjEzNmEuMTg2LjE4NiAwIDAwLS4xODYuMTg1djEuODg3YzAgLjEwMi4wODQuMTg1LjE4Ni4xODZtNS44OTMgMi43MTVoMi4xMThhLjE4Ni4xODYgMCAwMC4xODYtLjE4NVY5LjAwNmEuMTg2LjE4NiAwIDAwLS4xODYtLjE4NmgtMi4xMThhLjE4NS4xODUgMCAwMC0uMTg1LjE4NXYxLjg4OGMwIC4xMDIuMDgyLjE4NS4xODUuMTg1bS0yLjkzIDBoMi4xMmEuMTg1LjE4NSAwIDAwLjE4NC0uMTg1VjkuMDA2YS4xODUuMTg1IDAgMDAtLjE4NC0uMTg2aC0yLjEyYS4xODUuMTg1IDAgMDAtLjE4NC4xODV2MS44ODhjMCAuMTAyLjA4My4xODUuMTg1LjE4NW0tMi45NjQgMGgyLjExOWEuMTg1LjE4NSAwIDAwLjE4NS0uMTg1VjkuMDA2YS4xODUuMTg1IDAgMDAtLjE4NC0uMTg2aC0yLjEyYS4xODYuMTg2IDAgMDAtLjE4Ni4xODZ2MS44ODdjMCAuMTAyLjA4NC4xODUuMTg2LjE4NW0tMi45MiAwaDIuMTJhLjE4NS4xODUgMCAwMC4xODQtLjE4NVY5LjAwNmEuMTg1LjE4NSAwIDAwLS4xODQtLjE4NmgtMi4xMmEuMTg1LjE4NSAwIDAwLS4xODQuMTg1djEuODg4YzAgLjEwMi4wODIuMTg1LjE4NS4xODVNMjMuNzYzIDkuODljLS4wNjUtLjA1MS0uNjcyLS41MS0xLjk1NC0uNTEtLjMzOC4wMDEtLjY3Ni4wMy0xLjAxLjA4Ny0uMjQ4LTEuNy0xLjY1My0yLjUzLTEuNzE2LTIuNTY2bC0uMzQ0LS4xOTktLjIyNi4zMjdjLS4yODQuNDM4LS40OS45MjItLjYxMiAxLjQzLS4yMy45Ny0uMDkgMS44ODIuNDAzIDIuNjYxLS41OTUuMzMyLTEuNTUuNDEzLTEuNzQ0LjQySC43NTFhLjc1MS43NTEgMCAwMC0uNzUuNzQ4IDExLjM3NiAxMS4zNzYgMCAwMC42OTIgNC4wNjJjLjU0NSAxLjQyOCAxLjM1NSAyLjQ4IDIuNDEgMy4xMjQgMS4xOC43MjMgMy4xIDEuMTM3IDUuMjc1IDEuMTM3Ljk4My4wMDMgMS45NjMtLjA4NiAyLjkzLS4yNjZhMTIuMjQ4IDEyLjI0OCAwIDAwMy44MjMtMS4zODljLjk4LS41NjcgMS44Ni0xLjI4OCAyLjYxLTIuMTM2IDEuMjUyLTEuNDE4IDEuOTk4LTIuOTk3IDIuNTUzLTQuNGguMjIxYzEuMzcyIDAgMi4yMTUtLjU0OSAyLjY4LTEuMDA5LjMwOS0uMjkzLjU1LS42NS43MDctMS4wNDZsLjA5OC0uMjg4WiIvPjwvc3ZnPg==;fillColor=#d5e8d4;strokeColor=#82b366;" parent="1" vertex="1">
          <mxGeometry x="900" y="367" width="60" height="60" as="geometry" />
        </mxCell>
        <mxCell id="adCBaoDV9jtvJ8COVnm3-72" value="" style="ellipse;whiteSpace=wrap;html=1;aspect=fixed;fillColor=#f5f5f5;fontColor=#333333;strokeColor=#666666;" parent="1" vertex="1">
          <mxGeometry x="513" y="230" width="60" height="60" as="geometry" />
        </mxCell>
        <mxCell id="adCBaoDV9jtvJ8COVnm3-9" value="" style="shape=image;verticalLabelPosition=bottom;labelBackgroundColor=default;verticalAlign=top;aspect=fixed;imageAspect=0;image=data:image/svg+xml,PHN2ZyB4bWxucz0iaHR0cDovL3d3dy53My5vcmcvMjAwMC9zdmciIGZpbGw9ImN1cnJlbnRDb2xvciIgdmlld0JveD0iMCAwIDE2IDE2IiBoZWlnaHQ9IjE2IiB3aWR0aD0iMTYiPjxwYXRoIGQ9Ik0xMC41IDQuNjQ2TDguMzU0IDIuNWgtLjcwN0w1LjUgNC42NDZsLjcwNy43MDdMNy4zIDQuMjYxVjUuMjhoLS4wMnYuNDU2bC4wMjUuMDAxLjAwNi4zMTljLjAwNC4xODcuMDIuMzc5LjA1LjU3NC4wMy4xOTUuMDY5LjM5LjExNy41ODYuMDQ4LjE5NS4xMTQuNDA0LjIuNjI3LjE1NS4zNzkuMzQzLjcyMi41NjUgMS4wMzEuMjIxLjMwOS40Ni41OTguNzE1Ljg2Ny4yNTUuMjcuNTA4LjUzNS43Ni43OTcuMjUuMjYyLjQ3OC41NDEuNjgxLjgzOC4yMDMuMjk3LjM2OC42MjEuNDk0Ljk3My4xMjUuMzUxLjE4OC43NTUuMTg4IDEuMjEzdi44ODRIMTIuNXYtLjg4NGE1Ljk5MSA1Ljk5MSAwIDAgMC0uMTY2LTEuMzkgNC42MzggNC42MzggMCAwIDAtLjQyNy0xLjEgNS44NzUgNS44NzUgMCAwIDAtLjYwNC0uODk3Yy0uMjIyLS4yNy0uNDUzLS41MjctLjY5My0uNzc0LS4yNC0uMjQ2LS40NzEtLjQ5Mi0uNjkzLS43MzhhNi4zOSA2LjM5IDAgMCAxLS42MDQtLjc4NSAzLjc5NCAzLjc5NCAwIDAgMS0uNDMzLS45MTQgMy42NzYgMy42NzYgMCAwIDEtLjE2LTEuMTNWNS4yOGgtLjAwMXYtMWwxLjA3NCAxLjA3NC43MDctLjcwOHpNNy4wNDIgOS43NDFhOC4xOSA4LjE5IDAgMCAwIC4zMjktLjM2OSA2LjA2IDYuMDYgMCAwIDEtLjYyLTEuMTVMNi43NDQgOC4yYTcuMjYgNy4yNiAwIDAgMS0uMDk1LS4yNjNjLS4xNy4yNTYtLjM1OS40OTgtLjU2NS43MjYtLjIyMi4yNDYtLjQ1My40OTItLjY5My43MzgtLjI0LjI0Ny0uNDcuNTA0LS42OTMuNzc0LS4yMjEuMjctLjQyMy41NjgtLjYwNC44OTZhNC42NDMgNC42NDMgMCAwIDAtLjQyNyAxLjEwMiA1Ljk5NSA1Ljk5NSAwIDAgMC0uMTY2IDEuMzg5di44ODRoMS40MnYtLjg4NGMwLS40NTcuMDYyLS44NjIuMTg4LTEuMjEzLjEyNS0uMzUyLjI5LS42NzYuNDkzLS45NzMuMjAzLS4yOTcuNDMtLjU3Ni42ODItLjgzOC4yNTEtLjI2Mi41MDQtLjUyNy43Ni0uNzk3eiIgY2xpcC1ydWxlPSJldmVub2RkIiBmaWxsLXJ1bGU9ImV2ZW5vZGQiLz48L3N2Zz4=;fillColor=#f5f5f5;fontColor=#333333;strokeColor=#666666;" parent="1" vertex="1">
          <mxGeometry x="523" y="240" width="40" height="40" as="geometry" />
        </mxCell>
        <mxCell id="adCBaoDV9jtvJ8COVnm3-85" style="edgeStyle=orthogonalEdgeStyle;rounded=0;orthogonalLoop=1;jettySize=auto;html=1;exitX=1;exitY=0.25;exitDx=0;exitDy=0;entryX=0;entryY=0.5;entryDx=0;entryDy=0;" parent="1" source="adCBaoDV9jtvJ8COVnm3-77" target="adCBaoDV9jtvJ8COVnm3-63" edge="1">
          <mxGeometry relative="1" as="geometry" />
        </mxCell>
        <mxCell id="adCBaoDV9jtvJ8COVnm3-77" value="merge" style="rounded=0;whiteSpace=wrap;html=1;fontSize=14;fontStyle=1;verticalAlign=bottom;fillColor=#f5f5f5;fontColor=#333333;strokeColor=#666666;" parent="1" vertex="1">
          <mxGeometry x="513" y="387" width="60" height="50" as="geometry" />
        </mxCell>
        <mxCell id="adCBaoDV9jtvJ8COVnm3-78" value="" style="ellipse;whiteSpace=wrap;html=1;aspect=fixed;fillColor=#f5f5f5;fontColor=#333333;strokeColor=#666666;" parent="1" vertex="1">
          <mxGeometry x="513" y="357" width="60" height="60" as="geometry" />
        </mxCell>
        <mxCell id="adCBaoDV9jtvJ8COVnm3-79" value="" style="shape=image;verticalLabelPosition=bottom;labelBackgroundColor=default;verticalAlign=top;aspect=fixed;imageAspect=0;image=data:image/svg+xml,PHN2ZyB4bWxucz0iaHR0cDovL3d3dy53My5vcmcvMjAwMC9zdmciIGZpbGw9ImN1cnJlbnRDb2xvciIgdmlld0JveD0iMCAwIDE2IDE2IiBoZWlnaHQ9IjE2IiB3aWR0aD0iMTYiPjxwYXRoIGQ9Ik0xMC41IDQuNjQ2TDguMzU0IDIuNWgtLjcwN0w1LjUgNC42NDZsLjcwNy43MDdMNy4zIDQuMjYxVjUuMjhoLS4wMnYuNDU2bC4wMjUuMDAxLjAwNi4zMTljLjAwNC4xODcuMDIuMzc5LjA1LjU3NC4wMy4xOTUuMDY5LjM5LjExNy41ODYuMDQ4LjE5NS4xMTQuNDA0LjIuNjI3LjE1NS4zNzkuMzQzLjcyMi41NjUgMS4wMzEuMjIxLjMwOS40Ni41OTguNzE1Ljg2Ny4yNTUuMjcuNTA4LjUzNS43Ni43OTcuMjUuMjYyLjQ3OC41NDEuNjgxLjgzOC4yMDMuMjk3LjM2OC42MjEuNDk0Ljk3My4xMjUuMzUxLjE4OC43NTUuMTg4IDEuMjEzdi44ODRIMTIuNXYtLjg4NGE1Ljk5MSA1Ljk5MSAwIDAgMC0uMTY2LTEuMzkgNC42MzggNC42MzggMCAwIDAtLjQyNy0xLjEgNS44NzUgNS44NzUgMCAwIDAtLjYwNC0uODk3Yy0uMjIyLS4yNy0uNDUzLS41MjctLjY5My0uNzc0LS4yNC0uMjQ2LS40NzEtLjQ5Mi0uNjkzLS43MzhhNi4zOSA2LjM5IDAgMCAxLS42MDQtLjc4NSAzLjc5NCAzLjc5NCAwIDAgMS0uNDMzLS45MTQgMy42NzYgMy42NzYgMCAwIDEtLjE2LTEuMTNWNS4yOGgtLjAwMXYtMWwxLjA3NCAxLjA3NC43MDctLjcwOHpNNy4wNDIgOS43NDFhOC4xOSA4LjE5IDAgMCAwIC4zMjktLjM2OSA2LjA2IDYuMDYgMCAwIDEtLjYyLTEuMTVMNi43NDQgOC4yYTcuMjYgNy4yNiAwIDAgMS0uMDk1LS4yNjNjLS4xNy4yNTYtLjM1OS40OTgtLjU2NS43MjYtLjIyMi4yNDYtLjQ1My40OTItLjY5My43MzgtLjI0LjI0Ny0uNDcuNTA0LS42OTMuNzc0LS4yMjEuMjctLjQyMy41NjgtLjYwNC44OTZhNC42NDMgNC42NDMgMCAwIDAtLjQyNyAxLjEwMiA1Ljk5NSA1Ljk5NSAwIDAgMC0uMTY2IDEuMzg5di44ODRoMS40MnYtLjg4NGMwLS40NTcuMDYyLS44NjIuMTg4LTEuMjEzLjEyNS0uMzUyLjI5LS42NzYuNDkzLS45NzMuMjAzLS4yOTcuNDMtLjU3Ni42ODItLjgzOC4yNTEtLjI2Mi41MDQtLjUyNy43Ni0uNzk3eiIgY2xpcC1ydWxlPSJldmVub2RkIiBmaWxsLXJ1bGU9ImV2ZW5vZGQiLz48L3N2Zz4=;fillColor=#f5f5f5;fontColor=#333333;strokeColor=#666666;" parent="1" vertex="1">
          <mxGeometry x="523" y="367" width="40" height="40" as="geometry" />
        </mxCell>
        <mxCell id="adCBaoDV9jtvJ8COVnm3-90" value="Development" style="rounded=0;whiteSpace=wrap;html=1;fontSize=14;fontStyle=1;fillColor=#dae8fc;strokeColor=#6c8ebf;" parent="1" vertex="1">
          <mxGeometry x="100" y="200" width="360" height="30" as="geometry" />
        </mxCell>
        <mxCell id="adCBaoDV9jtvJ8COVnm3-91" value="Staging" style="rounded=0;whiteSpace=wrap;html=1;fontSize=14;fontStyle=1;fillColor=#fff2cc;strokeColor=#d6b656;" parent="1" vertex="1">
          <mxGeometry x="100" y="680" width="360" height="30" as="geometry" />
        </mxCell>
        <mxCell id="adCBaoDV9jtvJ8COVnm3-92" value="Production" style="rounded=0;whiteSpace=wrap;html=1;fontSize=14;fontStyle=1;fillColor=#d5e8d4;strokeColor=#82b366;" parent="1" vertex="1">
          <mxGeometry x="620" y="500" width="360" height="30" as="geometry" />
        </mxCell>
        <mxCell id="L8xQS8z93o3ELzqS3NWV-10" style="edgeStyle=orthogonalEdgeStyle;rounded=0;orthogonalLoop=1;jettySize=auto;html=1;exitX=0.5;exitY=0;exitDx=0;exitDy=0;entryX=0.5;entryY=1;entryDx=0;entryDy=0;fillColor=#fff2cc;strokeColor=#1D1D1D;" edge="1" parent="1" source="L8xQS8z93o3ELzqS3NWV-3" target="adCBaoDV9jtvJ8COVnm3-59">
          <mxGeometry relative="1" as="geometry" />
        </mxCell>
        <mxCell id="L8xQS8z93o3ELzqS3NWV-3" value="" style="rounded=0;whiteSpace=wrap;html=1;fillColor=#fff2cc;strokeColor=#d6b656;" vertex="1" parent="1">
          <mxGeometry x="360" y="520" width="100" height="100" as="geometry" />
        </mxCell>
        <mxCell id="L8xQS8z93o3ELzqS3NWV-4" value="test&lt;div&gt;containers&lt;/div&gt;" style="rounded=0;whiteSpace=wrap;html=1;fontSize=14;fontStyle=1;fillColor=#fff2cc;strokeColor=#d6b656;" vertex="1" parent="1">
          <mxGeometry x="360" y="620" width="100" height="40" as="geometry" />
        </mxCell>
        <mxCell id="L8xQS8z93o3ELzqS3NWV-1" value="" style="shape=image;verticalLabelPosition=bottom;labelBackgroundColor=default;verticalAlign=top;aspect=fixed;imageAspect=0;image=data:image/png,iVBORw0KGgoAAAANSUhEUgAAARgAAAEYCAYAAACHjumMAAAg00lEQVR4nOzdDZBcdZkv/m/39Nu8dJ/JZNI94SQhb8IE0g0KBBBZEJISRTSsrLqV/S9YWn+pK/eKK9aCL7VWuVuyV/Yaq7AKq7SEuuZerfIKqKzxZsQgIiGEkPQkZHjJJJmkk+nOvJ3u6Zl+71vnzBkdMCSZST/d55z+fqpStUXBec7uZr7znN85v+fnBhGREAYMEYlhwBCRGAYMEYlhwBCRGAYMEYlhwBCRGAYMEYlhwBCRGAYMEYlhwBCRGAYMEYlhwBCRGAYMEYlhwBCRGAYMEYlhwBCRGAYMEYnxNPoGyPpUJdoD4FYAa4P+SCCTTw4AeC6h9R9t9L2RtbkafQNkXaoSXasqse8C+Oi7/Ct9CS1+f0LrP1jnWyObYMDQX1GV6MqgP/KFUCBy/3l0uaV0LvnDhBb/RiafGqnTLZJNMGDobTas2HI3gMcX8J/qj0sf3D20jY9N9GcMGDIE/eGedZFN3wJwzwWuzf3kUHLHQ5l86kQNb49sigHT5FQlGjAfh74OoLNGl51M55IPZ/LJ7ye0/okaXZNsiAHTpIL+cLeqxL4VCkT0jiUgWOpxs6MZFqxBFsWAaUKqEu1UldirAFbWqeTRhBb/IF9rN5+WRt8A1VdveOOWJR1rfgFgRR3LdoYCkU8H/ZGJkezgq3WsSw3GDqYJBP3hgKrE/tl87VyrdZaFmkjnko8mtPi/Z/KpyQbfCwljwDhcb3jjp0KByMN1fBw6XyfSueSDA6m+bY2+EZLDgHEgs2P5cigQuQ9AT6Pv5xx2JbT4Y+lc8meZfCrX6Juh2mLAOIyqRPVweRLAbY2+l3namdDiH05o/QwZB+Eir4OoSvQmVYn9HMAHJK5f9bgBtwuuSlXi8itDgchmAG9k8qkjEgWo/tjBOEBveOPd5gLulVI1Su9VUfjYeuN/9v3yADyvJqRK6faZC8FPZPKpkmQhksWAsTFVid6gKrGtAK6WuL7esRRveQ9KN65GNfT2b/Fc6Rw8zw/C++ybcJUqEuV1+xJa/L6E1v+CVAGSxYCxIVWJXqcqsS8A+AepGqUrLkLhjstRXdJx1n/PdXoSvl8dhGf/Salb0f00ocV/kND6d0oWodpjwNjMhhVbvgvgfqnrV7raUNhyFcpru+f133l/cwi+7QNStzVr6+6hbV+SLkK1w0Vem1CV6Np1kU3bJLuW4oYVKNx9DSpLQ/P+byvvWYJy7CKgWEZLQhO5PwB653YdgD2ZfGpUqgjVDjsYi1OV6K1Bf+S28xz+tCDlixehcNcVqKxYVJPruYfG4fv5frQcG6/J9c6glM4lH83kk9/j/iZrY8BYlDmu8jsANkvVKF61DKW/WYPKyi6R67uPjsHzh8PwviI6GubXCS3+pYTW/5ZkEVoYBowFqUr0SlWJ/V5y31D+zihKN6+VuvzbeHa+Bf+T/ZIlJszd2vski9D8MWAsRFWil6tK7AGzaxEJl0p3Owp/G0P58vruIGg5OAzfL+Jwj2SlSkwAeCqhxR/hEHLrYMBYwJzhT58TW2e5ZAmKN66eCZaWBh2HVa4YQeN9fhAtb5yWqsIh5BbCgGkgc1zl50OByDdFO5Y7Lkf5SlXi8gvWsi9hfD8j2dGkc8lvZvLJH3B/U+MwYBog6A93zulYRMZVllcvNr7ALUWXAl6Lfo1QLBtfAusdjSuTl6qSm9PRcD5wnTFg6qwe4ypL71uG/N3XSF1ehP+Jl+HZK/q2aSChxa/nEPL6suivNucJ+sM9qxdff/uSjjVPSY2rrLZ6jQXc4kfWGbue7aQcXYqq0oqWwVGpvU3d5tjO4ZHsIBeB68RefwttaM7wpwcBnH1jzwJVwh0o3bAKxWsvBlq9EiXqZ7oI70vH4HnhCNxyEzWH07nk1oQW/x6HXMliwAjqDW/8RCgQeUTqccjoWG7rNdZaGvZmSEq5YuzW9m0fgGu6KFXlrXQu+cBAqu9pqQLNjgFTY2bH8sVQIHKvWLB43ChdezEK+qNQh1+ihHVM5uH7z0PwvHRMcizEUXP+zPc4f6a2GDA1tmHFlt9IjqusqApyn7sO1a42qRKW5BqbQuCHu+CW20ipe2r30LY7JQs0Gy7y1oiqRG9YF9n0CwB/I3H92eFP+b9/HxCSPIjRolq9xtsxmJsphcZ29qpKTP/lcCCTT4mO7GsW7GAuUG9445ZQIPKA1LjKarsP5ZVdKNwZPefwp2ZhDLl6sh+eg6Kn0e5K55JbB1J9P5Ms4nQMmAVSlei15rjK6ySuX3W7ULppDQof6rX/myEh+mOT9w+H4XnusFRHo/tjQovfn9D6X5Eq4GQMmHkyjwX5kP68Llkn99lrZwY40Tm1xE8i8KOXJEvkANy5e2jbdskiTsQ1mHlQleitqhL7BYD/AqDm74WrHjfKVy9H/pNXonJpuNaXd6xqJIjyuojRxbiSGYluxgPgLlWJXQ1gOJNPHat1AadiB3MezOFP3wXwUakas8eCNNvboVpzTUzD91S/9LEqPz2U3PFQJp/iNL1zYMCchXmQ2f3ma2eZTYnLO43P+yurF0tcvmm5B0eN+TMtx8W2HuXM+TNbE1q/6POZnTFgziDoD69cF9n0Hb0tlqpRuuIiY1xleVWX877CtYpyBS1HZsZ2Ch+r8hOzoxHdrWlHDJh3UJVor6rEXpQcV1m4rRfFD6+TujydQR2OVRk2d2vzsWkOBozJHFd5H4BPiw1/6mqbGf5kfjBG9dWy98TMkKuxKakSI3o3k9Di3+cQ8hlNHzBzhj/dKzaucvVi40M547whqw5/ahbFMjz9p4yNlC2DYkcrldK55CMJLf7vzT7kqmkDRlWil6pKTA+Ve8Q6FiUw07FcIzL+hS5Qy8tDMx2NJjaxYTidS359INX3I6kCVtd0AWN2LF8TPchseefMuEr9UYgdi7XpHc3eEzMdjdwbpwlzt7be0YgNubGipgoYc1zliwB6pWqU10WQu/f9UpcnQYHH/oSWQ0nJEvvMheCmGXLVFL9eg/5wz5Xq5i+HApHHAIicNlZt9aJ4+2XGNy12G1dJM0rvVYGAd2a3tszsmZ5QIHKX2Tm/XihnHR80jv5JmDP86UHJY0FK169EacMKVJtxjIIDudI5eHYPwfPiUeljVR5MaPEfOXnIlWMDpje88ePmuEqZjsXXguKHelG8aQ3XWZyqWIb3ucPw/nYArkJZqsoBc7f276QKNJLjAkZVoj2qEvvfAG6WqlH1uJH7p5uN6XLkfO6EhsD/2Ck5shPmtoPPOO1YFUf96u0Nb7x7SceanwNYL3H92WNBCh9fj2pPSKIEWZD+6Gu8EXS5jJMOhIKmNxSI3BX0R06OZAcPSRRoBNt3MEF/OBAKRD5lftMiN/zphlUo3H4Zhz81u+kifM+8ZhyrIjjkqs98bLL9+U22DhhzXOXDAES+va+ac2CLN60xZo4QzXIlM8b6jGfvCaljVUrmNL2HE1r/byUK1IMtA0ZVoleZ4yo/IHF9o2O5fmVzHAtCF2b2WJUXj0p2NNvNjuZ1qQJSbBUw5rjKBwH8i2Sd/N3X/HmCPdH50DsZ/xMvS5bIAXho99C2rZJFas02i7zm8KenAHxS4vrGuMrLe4xxleX1SyVKkINVloZQXtttPC65xqakxnbepiqxjQDimXzqVK0LSLB8B2OOq/y26PCny3t4LAjVTJ2OVfnhoeSOb2TyKdEiF8qyAaMq0RvM+SybJcZVVt0uo2Mp3bgaZQ7YJgEtr6eMoHGfSkuVmJgztnO/VJELYbmACfrDy8xxlZ+WqlHqDRvfs/DNEIkrV9Dyxml4dr4Fz0BKqkrJHNv5lUw+NSJVZCEstQajKtFAd/uaL/k9Hf+/xLEguvLFi1D82HpUl4lNxCT6C7fLePTW/+idjNDsGf1nZb3f0zE5kh18XqLAQlkmYIL+8MrVi9//st/T8TGJcKmoCvIfX4/iXVeg2tla68sTnZX+d650/Upjc6x7dAquTL7WJdx+T8ctQX8kMJIdtMy+Jss8Im1YseVJc72lpngsCFmR8LEq9+we2vaExIXnyxIBE/SHO9dFNp2u5YS5atBvfNpf2rCCx4KQNZUrxlgI3zOv1bqjyR1K7lhqhXnAlvjJCwUiV9YyXMpruzH9TzcbLSnDhSyrxW38HdX/rup/Z2soYP5MNZzITNpG4bEgZEfVrjbk/uuN9ThWpe4cETD641DxxtUo3vIeDn8i29J/MU5Hl8L77Jvw9r0hOeSqbmwdMDwWhBzHOzMpsXTtxcYGSmNsp9yxKuJsGzDZW9YCH7mMHQs5UrWz1TheuLjxEniePAD/C4ONvqUFse0KaPLWtZjobmv0bRCJKsCN5MX23Xxr2w5GN7YogILXjVCmgEDe/s+rRLMKxSoyWWBqqoqA6ChgWbYOGN1kh8/448+XsHgsx6AhWytXqpjQqph0yIsk2wfMrLzfg5NLO9AxWYCSLsDvgBV4ah7VKjCZrWIiXYXcYLz6c0zAzJrtaAK5mY6GQUNWVqkAE+mK0bFUHRQss2y7yHsuuYAH451+FD2O/V+RbE4PlMxkFZNZZ4YLnNjBzDXV5sV0qwehdAGd6Txayg79/yLZTnZq5nGo5PAG29EBo6u6XNAUv/GnPVtA13geXtkT+ojOSO9S0kbH4vxgmeX4gJkr2+4zuhpFy2ORloeLDQ3VydR0FeN6x+LYY+7PrKkCBmZHM9EZMB6dlian4HbSkj1ZTrkMjIxXkcs359+zpguYWXm/B8eWBxHMFNA1kWfQUM1NTs1801Ju4ifypg0YmN1MOuTHZLvXCJngZIGPTXTB8oUqxiaqKIicKGsvTR0wsyotbowsbsVoV8B447RIY0dD85edqiKTrSJfaPSdWAcDZo7ZN06THV4sGjc7mkbfFFme3rGMawyWM+FXaGdQ1jua7lajqyE6m+lcFcOnGS7vhh3MWWSCPvNDvbyxv4ndDM3K5avGNy05+86CqgsGzDmUPG6MdbUiHfSje2wabdNN9iEDvU2pNPM9y9R0o+/EHhgw56nkdWM40o7W6SLapkrGDBp2NM1D71gy2SqmpwEu/58/Bsw8Tbd6jT/poA/dYzm05tjROFmpPPMtS5Ydy4JwkXeBir4WY7d23seZwE5VqQDpDMPlQrCDuQC5gAeJizqM2TOhdB4dU+xmnKBYmhlXmc06a/hTIzBgakAPGv1P2hhyNQ1/oYm/DbcxvWPRMhWkJxt9J87BgKkho6NZ2oHgZBFKOg9fkUFjB9XqzFe44+mqETJUOwyYWnO5jO9n9D9d4zl0ajU91JxqrFCs4vRo88xnqTcGjKCxRQHkfW5jNrCH0/QsZXZcpZbhOoskBoyw2SFXeifTOl3isSoNVq5UkZ2C8U1Lsw1/agQGTB1UXS6MdwYw3gnjWBX90YkdTX059VgQq2PA1Nlkhw9Zs6NRMgWOhaiD6VwVYxo7lkZgwDRA1e3C+KKAMRoifHqK+5uEVCrA6HgVUzmGeKMwYBqo4nYhGW7jkCsBzXIsiNUxYBps7pCrrvGc8Q0NLVyhODOukvNZrIEBYxHlFjdOd7dhtKtqbDvgsSrzMzU9s9s5x8+OLIUBYzH6Y9NEZwCZjpkP9YJZdjRno3cs4xqDxaoYMBZV9rhxekkbCv6ZaXoenkb5V7TMzIdyTj3X2QkYMBanhfzIzB6rwiFXBh4LYh8MGBuYPVZFa/IhVxz+ZD8MGBsp+lpwqqcdvkLZeLXdLMeq6B1LJjuzkMvHIXthwNhQwddiHKuS97dgyaizf51P56pIjTJV7IoBY2OZoM849WDx2LTjZs/MDn/KcPiTrTFgbG661YMTF3UYu7Q7tbzttx2USlVkpmbGVTbzofFOwYBxApfLmKY3HPAYx6osHsvZrqMxBmxPVpDO8FgQJ2HAOMx0qxcnLvIY5zZ12uD7mVK5isnszCgFdizOw4BxIpcL6ZDf+NM9Om2EjRWVSsCpFOezOBkDxuFGFrcaZzctmrDOkCtj+NPUzDctDBdnY8A0gUzQh2y7F+1TRWMjZaOOValUgOx01ZiFW7T3WjSdJwZMk6i4XcYGyky71xgJ0TWeQ0ud2gceC9K8GDDNxjxWRe9oOidyxthOybEQufzMuMoi9w01JQZMk9I7mrGuVmM0RE8yW/PTDvSuZWyiaqy1UPPi4fdNTg+aUz3txkH+1RptbJrKVXEyVWG4EDsY+suxKrNDrjoWMORK71j0x6H0JIc/0V8wYOjPSh43UkvaMNpVMXZrd6bPb2wnjwWhd8NHJPor5Ra3cazKcLj9nI9NmezMbmeGC50JA4be1XSrB4mlHch0eI21mrkKxSpGxivGQi7Ru+EjEp1VwddinHYwVq4Y6zP+8QKPBaHzxoCh8zJ7rIr7aBGuArsWOj98RCIiMQwYIhLDgCEiMQwYIhLDgCEiMQwYIhLDgCEiMQwYIhLDgCEiMQwYIhLDgCEiMQwYIhLDgCEiMQwYIhLDgCEiMQwYIhLDgCEiMQwYIhLDgCEiMQwYIhLDgCEiMQwYIhLDgCEiMQwYIhLDgCEiMQwYIhLDgCEiMQwYIhLDgCEiMQwYIhLDgCEiMQwYIhLDgCEiMQwYIhLDgCEiMQwYIhLDgCEiMQwYIhLDgCEiMQwYIhLDgCEiMQwYIhLDgCEiMQwYIhLDgCEiMQwYIhLDgCEiMQwYIhLDgCEiMQwYIhLDgCEiMQwYIhLDgCEiMbYNmNALR+EqlBt9G0SiXKUyQm+cbPRtLJin0TewUN3/OQDlpSEM/+NVmLh5TaNvh6imPJlpLIofQ2f8GLyZXKNvZ8FsGzA67+gUln/3eSz98R6M3N6Lkc3rUfW1NPq2iBZM71gW734L3S+9CXfR/h26rQNmlmdiGj3bXkXXjjeNjka7cVWjb4lo3kKHTiD83CH40lONvpWacUTAzPKlJrHikeeQ3f46jn/xAyiGOxp9S0Tn5NWmoP7mVbQNjTT6VmrOKou8A7W8WPuBYaz5yjNYtOMNoFyp5aWJaqdSQef+Y1j1kz9IhEtNf6YWyhILFpl8alJVYlcC6K3VNVtyJYR2H0fwlRPIL+9EcQm7mVpwnczDVa42+jZsr+3EKJY9vQdd+49KrLXcM5Dqe6HWF10IV6NvYFbQH165LrLpSQBXSlx/elUXRjZfzjdOF8i9R4Mrz65woUIHj6P75cMIpDSR66dzyYcHUn0PiVx8ASzRwegK5exEQuv/QdAfKfk9He+v9fqQd2Iayq4hBPcmkL94EYrd7bW8fNNgB7MwrSfHsPzpl7F47xF4snmJErl0LvnNgVTfv0hcfKEsEzCzRrKDz6tK7BUAd0ksQntHp4y3TblVXcgvU2p9ecdjwMyPq1RGz87XcNH2fZLfs+gXvnP/yad/LFVgoSwXMLqE1v8WgO2hQMQHYC0AX61rKH86itbBMZRDfhR6grW+vGMxYM5f+9HTWPbUbgTfGpYqMQngfyW0+L0Dqb7npYpcCMuswbyboD/csy6y6dsA7pGqkb56GU59bgMKS0NSJRyDazDn5hvPIvJsP4KHk5JlHj+U3PFQJp8SS69asHzAzFKV6LWqEtsK4DqJ61e8LZh8n4qROy5DNtojUcIRGDDvrm1oBItfOYz2wRTccp9H7Epo8fsTWv9LUgVqyTYBM2vDii33A9A7moBUjaEHbuLXwO+CAXNmoUMJLPvVHskSOQAP7R7atlWySK1Zcg3mbBJa/y4AT4UCkUsArJaoEdo1BM/4NKYuXYKq31EfO18wrsG8XctUHpFnDyL8/CHJ39Z9CS3+twOpvl/JlZBhuw5mLlWJ3m4+Nq2VuH653YeJG1dh9I7L+MbJxA5mhm80g8WvDBqdS0u+KFGiBOCPCS3+SELrf0aiQD3YOmAwswgcCAUiH1KVmP7odLNEjarbhbHbLsXwP7wPlfaav9CylWYPGHeuaHQri/Ydhasq1sntNNdZ9ksVqBfbB8xcveGNnwoFIg8DWClxfb2jGf7HqzB5xdKmfePUrAHjG89i0d5BdB44LtWx6I6mc8kHB1J9P5MqUG+OChjMPDZ1qkrsxwA2S9WoeFtw+Du3Gx/rNZtmDJhASsPK//kHyTdDuqcSWvwzCa1/QrJIvTkuYGapSvRWVYk9WssNlHNVAh4kP3mFsT7TTEOumilgXKUyuvYMYsmLr0sOfxowH4d+K1WgkRwbMJhZn/GoSuzzoUDkXwF0StTILw1ifNMlGL9lLUqLWiVKWEozBIwnmzMehTr3H4NvIitVZiKdS349ocV/kMmnSlJFGs3RATMr6A93hwKRLaoSu0/yjVPq72IY+dhlQItVxuzUnqMDplLB4j2D6H7xDcl1lrcSWvzRdC65LZNPOW/C1Ds0RcDMMjuaL4cCkQclO5pTn92AzDXLJS7fcE4NmI7Dw+j53QHpjuXhhBb/Dyd3LO/UVAEzS1WiV6pK7PdSIaPLru/Bsa/eYnQ2TuK0gHHniljx1G7pcZVHE1r8zoTWv0+yiBU1z+rkHOYGsf8TCkSmzEXgtlrX8KUm0bnzMEpKALmVznnb5KQveUMHj2P507sROJ2WKjGSziX/20h28PMJrf+EVBEra8oOZq6gP9ypKrGvhQKR+6WGoGfXhY3d2rkVi2z/xsnuHYyrVEbwzWF07R1EW2JMqkwpnUtuTWjxf8vkU4567TxfTR8ws1QleqmqxO41x0KIPDoVwh22P1bFzgFTh2NB9DB5PKHFH0to/a9LFbETBsw7qEp0parEXpVcn0l++kqk/l5k9LA4uwbMkhcGsOQF0Z/5iYQWf29C6z8qWcRu7N2vC9Bb2nQuuW1Jx5qLAKyXqNFxYBiBY+ModbaiuLgNcNsn5221BlOpoO34KMK/P4CufaI/9z89lNxx50j2yJBkETuyz9/sBlCV6A3mtzObpebPTK1dbLzWnrosInH5mrNLB9N2YhSRZw+gdVhsCSRnft7/aELrt8QRIVbEgDkPqhJdqyqxb5uDyEVMfGAVhj9zteVPO7B6wHgy04j8/iCUgYRkmZ8ntPhD5uxoOgsGzDyY+5u2mq+2a/7GqeJtMRaAx2671Bh2ZUVWDZjWk2PGCIXQoYTUpsQSgF+bHcvvJAo4EQNmnlQlGlCV2M0AfiNZ59hDtyB93QrJEgtixYAJvnkKy5/cLV3mw7uHtm2XLuI0XOSdp0w+VTJb41+HApEYgGUSdZQ/HYV7uoipS5ZY6tsZKy3yerUpY6dz5NmDkr8pdyW0+GarHgtidexgLlBveOOWUCByn9RpB6Wg33hcssqxKlboYOp0LMiudC756ECqb5tkEadjwNSI+cZpK4CrJa5f8bYYO7VPfyLa0LGdjQwYd66I7pfeRNeew5LDn/aY81n4ZqgGGDA11hveeLc5tlPkcKViZysmbl2L0dsuRTHcIVHirBoRMPqj0KJ9R9F5YEjqXGfdsDmu8gmpAs2IASPA/Br4x1JDyGHOnzn832+v+2kH9Q4Y32gGq37yvOR8FphDtj/Dr3Brzzqrhw6SyacmElr/E0F/5IDf07FBYtuBu1hG53ODxqPT9NrFdfsauG6LvJUKul4ZhPrMXukh25/bf/Lpf272TYlS2MEIC/rDgTlDrkSeafKqYjwyjd+6Vnx9RrqDceeKxqOQ/kjkH5uUKqM/Dj1qDn/KSRUhBkzdBP3hZaoSu8lcnxF5tT17rMrYpveIje0UC5hKBZ37hxD5w2uSHcsJc52Fb4bqhAFTZ+axKq9Knd2km7hxFY4/cJPItaUCRv3lHunP+4+au535KFRHXIOpM70lT+eST/g9HZ1+T8d6iS0HgaEJdOw/iYrfM/PtTA27mVquwbhKZXTvehPLfrkHbafGa3LNM9D/7/3DwdEX/24ke4ThUmfsYBpIVaKBoD/yhVAg8nXJIeTD/99VSN9Qm4apVh1M8PUEIs8dkh6y/a+ZfPL7Ca2f6ywNwoCxgKA/3LMusulb5jQ9kbGdk1csxehH1iF9zbIL6mguKGAqFePr2669R9B+7PSC7+EcSgAeP5Tc8Q1z9jI1EAPGQlQleoV5iP9dYm+cLvBYlYUGTB2OBZk0xyhsdcKh8U7BgLEg81iVF6WGXOn0kDEOiZunhQRM157D6Hn2wLxrzUMuocWvb8ZjQayOi7wWZLb2PwsFIpdInUQZfDUB36k0Sl1t8xpyNZ9F3taTYwg/9xq6d4vOZdqe0OJ3JLT+1ySL0MKwg7E4VYl+KOiPfDQUiNwrtT4zdckSnPz8tZhe233Of/d8OpjA8ASW9sXRelLszVApnUs+lskn/4Of91sbA8YmzGNVHgWwUarG+C1rjQ/1znaI/9kCJpDSjMehzgPHpW5R12fudj4oWYRqgwFjM6oSvV1VYg8A+IBER1Nu9yF97QqM3HEZcqv/+kTKMwWMP6mh59l+tB8frfXtzCoB+GNCiz+S0PqfkSpCtceAsakNK7bcDeBxqetXvC0Y+uotyLxPfds/f2fAdBxJYdkvXpKcz6K7Z/fQNo5RsCEu8tqU+Sp2ZygQuRpAuNbXd1WqCP3pGNyFMvLLO1Fp9c78c3OR15PNYfFLb6Knr18yXA4ktPgnB1J9T0sVIFnsYGwu6A97VCX2WfNs7V6pOsaxKndfBXd/BpH/e0B639CAebbzjzL5VEmyEMliwDiIeazKo1JBoz82oVqFuyTWsQwktPh9PBbEORgwDmMeq/J7qSHkgnYltPgHuW/IWbgG4zD6I0U6l9zm93TA7+mISX4NXCN7Elr8qwkt/pWR7BGGi8Owg3E46SHkF4BDtpsAA6YJBP3hDlWJfc38GlhkLMQ8TKRzyccSWvzfMvmU2ExMsgYGTBMx589sMTuac+8LqK0RvWPJ5JPbuM7SPBgwTcg8VuXFOj42DZu7nblvqMlwkbcJZfIp/TFl25KONXrAxITL/eRQcscnRrJHTgjXIQtiB9PkVCXaGfRHvmgeq1KrN065dC75cCaf/B6HbDc3BgwZgv7wsnWRTd8B8OkLvNRPDyV3fCWTT7FjIQYMvZ15iP99ADbPo6PRO5ZHzAHbnINLf8aAoTPasGLLbQCePI+QyQG4c/fQtu11ujWyES7y0hkltP63APw6FIj0nuWQuJ0JLX7XQKrvhTrfHtkEOxg6J1WJ6gFz05ygOQrgOb52JiKihpE5IZ2IiAFDRJIYMEQkhgFDRGIYMEQkhgFDRGIYMEQkhgFDRGIYMEQkhgFDRGIYMEQkhgFDRGIYMEQkhgFDRGIYMEQkhgFDRGIYMEQk5v8FAAD//y/VOk89V0qjAAAAAElFTkSuQmCC;fillColor=#fff2cc;strokeColor=#d6b656;" vertex="1" parent="1">
          <mxGeometry x="380" y="540" width="60" height="60" as="geometry" />
        </mxCell>
      </root>
    </mxGraphModel>
  </diagram>
</mxfile>
